<svg width="16" height="20" viewBox="0 0 16 20" fill="none" xmlns="http://www.w3.org/2000/svg">
<path d="M8.08707 12.9815C9.21383 12.9815 10.2944 12.5811 11.0912 11.8682C11.8879 11.1553 12.3355 10.1884 12.3355 9.1803V4.42874C12.3355 3.42059 11.8879 2.45373 11.0912 1.74086C10.2944 1.02799 9.21383 0.627502 8.08707 0.627502C6.96031 0.627502 5.8797 1.02799 5.08296 1.74086C4.28623 2.45373 3.83862 3.42059 3.83862 4.42874V9.1803C3.83862 10.1884 4.28623 11.1553 5.08296 11.8682C5.8797 12.5811 6.96031 12.9815 8.08707 12.9815Z" fill="white"/>
<path d="M15.5219 9.18023C15.5219 8.92819 15.41 8.68648 15.2108 8.50826C15.0116 8.33004 14.7415 8.22992 14.4598 8.22992C14.1781 8.22992 13.908 8.33004 13.7088 8.50826C13.5096 8.68648 13.3977 8.92819 13.3977 9.18023C13.3977 10.4404 12.8382 11.649 11.8423 12.5401C10.8463 13.4312 9.49557 13.9318 8.08713 13.9318C6.67868 13.9318 5.32792 13.4312 4.33199 12.5401C3.33607 11.649 2.77657 10.4404 2.77657 9.18023C2.77657 8.92819 2.66467 8.68648 2.46548 8.50826C2.2663 8.33004 1.99615 8.22992 1.71446 8.22992C1.43277 8.22992 1.16261 8.33004 0.963429 8.50826C0.764245 8.68648 0.652344 8.92819 0.652344 9.18023C0.654437 10.7785 1.2996 12.3227 2.46981 13.5303C3.64001 14.7378 5.25703 15.5281 7.02501 15.7564V17.733H4.78396C4.53326 17.733 4.29282 17.8221 4.11555 17.9807C3.93827 18.1394 3.83868 18.3545 3.83868 18.5788V18.7879C3.83868 19.0122 3.93827 19.2273 4.11555 19.3859C4.29282 19.5445 4.53326 19.6336 4.78396 19.6336H11.3903C11.641 19.6336 11.8814 19.5445 12.0587 19.3859C12.236 19.2273 12.3356 19.0122 12.3356 18.7879V18.5788C12.3356 18.3545 12.236 18.1394 12.0587 17.9807C11.8814 17.8221 11.641 17.733 11.3903 17.733H9.14924V15.7564C10.9172 15.5281 12.5342 14.7378 13.7044 13.5303C14.8747 12.3227 15.5198 10.7785 15.5219 9.18023Z" fill="white"/>
</svg>
